<svg xmlns:xlink="http://www.w3.org/1999/xlink" xmlns="http://www.w3.org/2000/svg" version="1.1" viewBox="0 0 1024 1024" height="1024px" width="1024px">
    <title>404</title>
    <defs>
        <linearGradient id="linearGradient-1" y2="100%" x2="50%" y1="0%" x1="50%">
            <stop offset="0%" stop-color="#F9AB21"></stop>
            <stop offset="100%" stop-color="#FEE127"></stop>
        </linearGradient>
        <linearGradient id="linearGradient-2" y2="99.7159694%" x2="99.2363281%" y1="99.7159694%" x1="-16.948407%">
            <stop offset="0%" stop-color="#F4B538"></stop>
            <stop offset="100%" stop-color="#FFDC4D"></stop>
        </linearGradient>
        <linearGradient id="linearGradient-3" y2="99.7159694%" x2="99.2363281%" y1="99.7159694%" x1="45.2511623%">
            <stop offset="0%" stop-color="#FFDC4D"></stop>
            <stop offset="100%" stop-color="#F4B538"></stop>
        </linearGradient>
        <linearGradient id="linearGradient-4" y2="99.7159694%" x2="99.2363281%" y1="99.7159694%" x1="45.2511623%">
            <stop offset="0%" stop-color="#FFDC4D"></stop>
            <stop offset="100%" stop-color="#F4B538"></stop>
        </linearGradient>
        <linearGradient id="linearGradient-5" y2="99.7159694%" x2="99.2363281%" y1="99.7159694%" x1="45.2511623%">
            <stop offset="0%" stop-color="#FFDC4D"></stop>
            <stop offset="100%" stop-color="#F4B538"></stop>
        </linearGradient>
        <linearGradient id="linearGradient-6" y2="99.7159694%" x2="99.2363281%" y1="99.7159694%" x1="45.2511623%">
            <stop offset="0%" stop-color="#FFDC4D"></stop>
            <stop offset="100%" stop-color="#F4B538"></stop>
        </linearGradient>
        <linearGradient id="linearGradient-7" y2="99.7159694%" x2="99.2363281%" y1="99.7159694%" x1="45.2511623%">
            <stop offset="0%" stop-color="#FFDC4D"></stop>
            <stop offset="100%" stop-color="#F4B538"></stop>
        </linearGradient>
        <linearGradient id="linearGradient-8" y2="99.7159694%" x2="99.2363281%" y1="99.7159694%" x1="45.2511623%">
            <stop offset="0%" stop-color="#FFDC4D"></stop>
            <stop offset="100%" stop-color="#F4B538"></stop>
        </linearGradient>
        <linearGradient id="linearGradient-9" y2="99.7159694%" x2="99.2363281%" y1="99.7159694%" x1="45.2511623%">
            <stop offset="0%" stop-color="#FFDC4D"></stop>
            <stop offset="100%" stop-color="#F4B538"></stop>
        </linearGradient>
        <linearGradient id="linearGradient-10" y2="100%" x2="50%" y1="12.9243097%" x1="50%">
            <stop offset="0%" stop-color="#FFCDA5"></stop>
            <stop offset="100%" stop-color="#FFE8D1"></stop>
        </linearGradient>
        <linearGradient id="linearGradient-11" y2="100%" x2="93.4428548%" y1="0%" x1="41.3771295%">
            <stop offset="0%" stop-color="#FFF2DF"></stop>
            <stop offset="100%" stop-color="#FEE0BC"></stop>
        </linearGradient>
        <linearGradient id="linearGradient-12" y2="73.6326896%" x2="100%" y1="11.7098971%" x1="14.3474826%">
            <stop offset="0%" stop-color="#BFD4FA"></stop>
            <stop offset="100%" stop-color="#5792F0"></stop>
        </linearGradient>
        <linearGradient id="linearGradient-13" y2="74.580348%" x2="10.2765284%" y1="42.0503368%" x1="172.425527%">
            <stop offset="0%" stop-color="#BFD4FA"></stop>
            <stop offset="100%" stop-color="#5792F0"></stop>
        </linearGradient>
        <linearGradient id="linearGradient-14" y2="50%" x2="-6.29144848%" y1="52.4797325%" x1="160.3088%">
            <stop offset="0%" stop-color="#BFD4FA"></stop>
            <stop offset="100%" stop-color="#5792F0"></stop>
        </linearGradient>
        <linearGradient id="linearGradient-15" y2="100%" x2="50%" y1="0%" x1="50%">
            <stop offset="0%" stop-color="#FEE127"></stop>
            <stop offset="100%" stop-color="#F9AB21"></stop>
        </linearGradient>
        <linearGradient id="linearGradient-16" y2="73.6421529%" x2="95.466239%" y1="32.4542466%" x1="8.33922697%">
            <stop offset="0%" stop-color="#FEE127"></stop>
            <stop offset="100%" stop-color="#F9AB21"></stop>
        </linearGradient>
        <linearGradient id="linearGradient-17" y2="100%" x2="50%" y1="0%" x1="50%">
            <stop offset="0%" stop-color="#FFF29D"></stop>
            <stop offset="100%" stop-color="#F9AB21"></stop>
        </linearGradient>
        <linearGradient id="linearGradient-18" y2="39.6687968%" x2="50%" y1="0%" x1="50%">
            <stop offset="0%" stop-color="#FFF29D"></stop>
            <stop offset="100%" stop-color="#F9AB21"></stop>
        </linearGradient>
        <linearGradient id="linearGradient-19" y2="55.7224954%" x2="50%" y1="0%" x1="50%">
            <stop offset="0%" stop-color="#FFF29D"></stop>
            <stop offset="100%" stop-color="#F9AB21"></stop>
        </linearGradient>
        <linearGradient id="linearGradient-20" y2="100%" x2="50%" y1="0%" x1="50%">
            <stop offset="0%" stop-color="#FFF29D"></stop>
            <stop offset="100%" stop-color="#F9AB21"></stop>
        </linearGradient>
        <linearGradient id="linearGradient-21" y2="100%" x2="50%" y1="0%" x1="50%">
            <stop offset="0%" stop-color="#FFF29D"></stop>
            <stop offset="100%" stop-color="#F9AB21"></stop>
        </linearGradient>
        <linearGradient id="linearGradient-22" y2="100%" x2="52.6571864%" y1="-40.2366026%" x1="52.6571864%">
            <stop offset="0%" stop-color="#FFF29D"></stop>
            <stop offset="100%" stop-opacity="0" stop-color="#F9AB21"></stop>
        </linearGradient>
        <linearGradient id="linearGradient-23" y2="100%" x2="50%" y1="0%" x1="50%">
            <stop offset="0%" stop-color="#FFF29D"></stop>
            <stop offset="100%" stop-color="#F9AB21"></stop>
        </linearGradient>
        <linearGradient id="linearGradient-24" y2="100%" x2="50%" y1="0%" x1="50%">
            <stop offset="0%" stop-color="#FEE127"></stop>
            <stop offset="100%" stop-color="#F9AB21"></stop>
        </linearGradient>
        <linearGradient id="linearGradient-25" y2="100%" x2="50%" y1="0%" x1="50%">
            <stop offset="0%" stop-color="#FEE127"></stop>
            <stop offset="100%" stop-color="#F9AB21"></stop>
        </linearGradient>
        <linearGradient id="linearGradient-26" y2="100%" x2="50%" y1="0%" x1="50%">
            <stop offset="0%" stop-color="#FEE127"></stop>
            <stop offset="100%" stop-color="#F9AB21"></stop>
        </linearGradient>
        <linearGradient id="linearGradient-27" y2="57.6918367%" x2="68.9604489%" y1="36.890412%" x1="-26.255282%">
            <stop offset="0%" stop-color="#FFDC4D"></stop>
            <stop offset="100%" stop-color="#F4B538"></stop>
        </linearGradient>
    </defs>
    <g fill-rule="evenodd" fill="none" stroke-width="1" stroke="none" id="404">
        <rect height="1024" width="1024" y="0" x="0" id="矩形"></rect>
        <g transform="translate(32.000000, 70.000000)" id="编组-2">
            <path opacity="0.100000001" fill="url(#linearGradient-1)" id="路径-56" d="M70.229793,433.03304 C26.9714336,349.456398 35.7834996,277.997232 96.665991,218.655544 C187.989728,129.64301 284.509113,160.902163 316.961635,185.571805 C349.414157,210.241448 418.253456,281.415182 517.833389,160.036608 C617.413322,38.6580344 717.185037,140.486156 706.812535,218.655544 C696.440033,296.824931 680.091881,384.836688 866.697294,384.950583 C991.100902,385.026514 991.100902,446.68403 866.697294,569.923134 C784.613981,627.982918 776.938969,675.946713 843.672259,713.814519 C910.405549,751.682326 902.524082,783.853082 820.027856,810.326789 C625.785874,851.316899 440.29246,862.579891 263.547612,844.115765 C86.8027652,825.651639 51.9655261,789.402535 159.035895,735.368454 C190.844593,694.342554 170.054625,675.66578 96.665991,679.338133 C-13.4169592,684.846662 -39.1431738,592.049622 70.229793,569.923134 C143.145104,555.172142 143.145104,509.542111 70.229793,433.03304 Z"></path>
            <g transform="translate(726.883902, 723.046858)" id="草">
                <ellipse ry="3.65268293" rx="11.6885854" cy="71.2273171" cx="24.4729756" fill="url(#linearGradient-2)" id="椭圆形"></ellipse>
                <path fill="url(#linearGradient-3)" id="路径-42" d="M12.06271,69.7968074 C13.6543875,43.2169463 20.3224341,27.8326696 32.0668498,23.6439773 C36.690637,23.0266531 41.8439278,22.0984616 38.2507155,28.090771 C34.6575032,34.0830803 25.0355399,31.7510762 15.4138955,69.7809641 C14.5436409,71.4069311 13.426579,71.4122122 12.06271,69.7968074 Z"></path>
                <path fill="url(#linearGradient-4)" id="路径-41" d="M11.8431426,69.4638051 C8.71844576,44.6376954 6.16098668,29.0250415 4.17076537,22.6258434 C1.18543341,13.0270463 -5.17089526,-5.44612194 8.05818016,1.54274685 C21.2872556,8.53161563 22.8513377,44.3811293 16.7363055,66.1984837 C14.8356252,71.7192574 13.2045709,72.8076979 11.8431426,69.4638051 Z"></path>
            </g>
            <g transform="translate(100.448780, 545.891736)" id="Error">
                <path fill="#BE841D" id="矩形" d="M152.564389,0 L169.138962,0 C172.176529,3.30186575e-16 174.638962,2.46243388 174.638962,5.5 L174.638962,316.203352 C174.638962,319.240918 172.176529,321.703352 169.138962,321.703352 L152.564389,321.703352 C149.526823,321.703352 147.064389,319.240918 147.064389,316.203352 L147.064389,5.5 C147.064389,2.46243388 149.526823,1.44617026e-15 152.564389,0 Z"></path>
                <polygon points="5.00177513 25.5687805 307.75096 50.478866 347.004878 116.760076 302.749185 177.228932 -1.30022822e-13 152.318846 0.595952276 91.8499901" fill="#BE841D" id="矩形"></polygon>
                <path transform="translate(163.821402, 103.459390) rotate(4.000000) translate(-163.821402, -103.459390)" fill-rule="nonzero" fill="#FFFFFF" d="M104.258415,133.322927 L104.258415,119.211585 L73.7385366,119.211585 L73.7385366,109.694634 L98.6795122,109.694634 L98.6795122,95.5832927 L73.7385366,95.5832927 L73.7385366,87.0508537 L103.273902,87.0508537 L103.273902,72.9395122 L53.720122,72.9395122 L53.720122,133.322927 L104.258415,133.322927 Z M129.855732,133.322927 L129.855732,118.227073 C129.636951,109.475854 133.137439,105.100244 140.357195,105.100244 C140.794756,105.100244 141.451098,105.319024 142.32622,105.756585 L142.32622,105.756585 L143.967073,105.756585 L143.967073,88.3635366 L143.967073,88.3635366 L142.982561,88.3635366 C142.32622,88.1447561 141.888659,88.0353659 141.669878,88.0353659 C135.106463,88.0353659 130.621463,91.4264634 128.214878,98.2086585 L128.214878,98.2086585 L128.214878,89.3480488 L112.134512,89.3480488 L112.134512,133.322927 L129.855732,133.322927 Z M166.939024,133.322927 L166.939024,118.227073 C166.720244,109.475854 170.220732,105.100244 177.440488,105.100244 C177.878049,105.100244 178.53439,105.319024 179.409512,105.756585 L179.409512,105.756585 L181.050366,105.756585 L181.050366,88.3635366 L181.050366,88.3635366 L180.065854,88.3635366 C179.409512,88.1447561 178.971951,88.0353659 178.753171,88.0353659 C172.189756,88.0353659 167.704756,91.4264634 165.298171,98.2086585 L165.298171,98.2086585 L165.298171,89.3480488 L149.217805,89.3480488 L149.217805,133.322927 L166.939024,133.322927 Z M209.92939,133.979268 C226.337927,133.541707 234.760976,125.88439 235.198537,111.007317 C234.323415,96.5678049 225.900366,88.9104878 209.92939,88.0353659 C193.739634,88.6917073 185.425976,96.5678049 184.988415,111.663659 C185.425976,126.103171 193.739634,133.541707 209.92939,133.979268 Z M210.284536,122.830099 L209.92939,122.821463 C204.897439,122.602683 202.381463,118.664634 202.381463,111.007317 C202.600244,104.006341 205.22561,100.287073 210.257561,99.8495122 C214.633171,100.068293 217.039756,103.787561 217.477317,111.007317 C217.477317,119.102195 214.961341,123.040244 209.92939,122.821463 L210.284536,122.830099 Z M259.811341,133.322927 L259.811341,118.227073 C259.592561,109.475854 263.093049,105.100244 270.312805,105.100244 C270.750366,105.100244 271.406707,105.319024 272.281829,105.756585 L272.281829,105.756585 L273.922683,105.756585 L273.922683,88.3635366 L273.922683,88.3635366 L272.938171,88.3635366 C272.281829,88.1447561 271.844268,88.0353659 271.625488,88.0353659 C265.062073,88.0353659 260.577073,91.4264634 258.170488,98.2086585 L258.170488,98.2086585 L258.170488,89.3480488 L242.090122,89.3480488 L242.090122,133.322927 L259.811341,133.322927 Z"></path>
            </g>
            <g transform="translate(194.800037, 738.255064)" id="草">
                <path fill="url(#linearGradient-5)" id="路径-43" d="M88.2776638,127.934751 C84.9022687,112.570243 75.0448988,101.829907 58.7055542,95.7137431 C40.0466194,89.7157984 29.8238961,82.5862156 41.4997075,77.4166069 C51.3592912,76.6328604 72.3863347,68.9543276 88.2776638,114.81901 C89.3836188,119.263531 89.3836188,123.635445 88.2776638,127.934751 Z"></path>
                <path fill="url(#linearGradient-6)" id="路径-44" d="M89.1071301,130.371767 C79.2804104,93.6907652 68.1172584,66.9103788 55.6176743,50.0306081 C46.4395663,38.4956145 47.0826898,21.9899039 55.6176743,18.2591755 C64.3541257,17.28763 80.4556781,15.7849617 92.5794034,79.0014077 C93.3451131,83.3496848 97.6170816,108.788004 92.5794034,125.205175 C91.8337494,127.458298 90.676325,129.180496 89.1071301,130.371767 Z"></path>
                <path fill="url(#linearGradient-7)" id="路径-45" d="M91.3766631,122.08697 C95.8211522,105.67347 95.2568761,84.2576344 89.6838348,57.8394642 C81.1593089,32.2294087 66.6089128,0.726240714 93.1297047,0 C103.889314,1.46314529 116.881823,12.7413761 111.97257,68.9507713 C108.980929,91.6323854 103.777911,105.031501 98.3175124,122.08697 C96.4127294,123.150441 94.099113,123.150441 91.3766631,122.08697 Z"></path>
                <path fill="url(#linearGradient-8)" id="路径-46" d="M96.5682719,128.461552 C94.789198,82.0505817 103.283162,48.7434141 122.050164,28.5400491 C127.118031,21.7888895 146.398428,15.4659549 146.325643,36.6291381 C144.312844,45.7291735 140.005884,65.1566124 115.170167,94.7971638 C106.988206,105.495297 101.61082,121.128245 101.558407,124.793591 C101.523464,127.237156 99.860086,128.459809 96.5682719,128.461552 Z"></path>
                <path fill="url(#linearGradient-9)" id="路径-47" d="M0,134.589571 C18.5842419,131.125795 28.8331984,128.185341 30.7468698,125.768209 C33.6173768,122.142512 58.9052374,106.574995 74.6746433,119.687734 C78.107392,115.276072 89.1165519,111.844357 95.4168579,119.687734 C98.2992854,107.304702 116.281106,99.3742023 124.101584,100.658974 C132.908669,99.9697424 158.908507,100.256504 160.851676,134.589571 C153.757904,134.754725 100.140679,134.754725 0,134.589571 Z"></path>
            </g>
            <g transform="translate(445.627317, 653.645883)" id="人物">
                <ellipse ry="28.0322178" rx="109.580488" cy="202.817292" cx="109.580488" fill="#FEE3B1" id="椭圆形"></ellipse>
                <g transform="translate(111.037340, 54.626864) rotate(33.000000) translate(-111.037340, -54.626864) translate(74.510511, 13.212597)" id="头">
                    <rect height="20.6400356" width="20.6400356" y="62.1884979" x="32.1725503" fill="url(#linearGradient-10)" id="矩形"></rect>
                    <path fill="url(#linearGradient-11)" id="椭圆形" d="M49.1274525,70.5310219 C69.1035985,66.2474408 69.9547665,52.6872853 67.521893,32.9985976 C62.3859564,16.3472752 45.8234865,6.15398633 30.528581,10.2312496 C15.2336754,14.3085128 6.99820392,31.1123516 12.1341405,47.7636739 C17.2700771,64.4149962 33.832547,74.6082851 49.1274525,70.5310219 Z"></path>
                    <path fill="#483029" id="路径-66" d="M29.0404443,68.0487737 C15.7380858,64.5594814 7.22923025,58.881557 3.51387759,51.0150006 C-2.05915138,39.2151659 -0.58854441,25.13397 5.01523615,19.0171771 C4.43548189,17.7596465 3.16113239,16.3066752 1.36597829,15.3005561 C3.55563048,14.2968954 7.28367477,13.8675466 8.1937386,14.5246581 C8.02595721,13.1567876 9.099203,8.40132048 10.582707,6.93182798 C10.4818197,7.96863965 10.6854375,9.48874757 11.1935603,11.4921517 C12.9800991,7.71298316 18.5597241,4.14635614 27.9324354,0.792270675 C32.1711838,0.254411032 36.6884046,-0.841091737 45.1210652,1.12906704 C47.9168648,1.85611003 51.5084226,2.15786339 61.9617898,8.70566746 C60.6694519,8.73479132 59.8359051,8.83661045 59.4611495,9.01112485 C65.2213897,12.7250633 69.752226,16.7788117 73.0536585,21.1723698 C71.9664376,21.7261431 71.0794897,21.9756801 70.3928146,21.9209808 L72.3938245,22.9390586 L66.6878475,22.9390586 L70.3928146,30.0351301 C65.3288649,25.0608026 60.4064805,22.1065492 55.6256615,21.1723698 C52.5266575,20.0208089 51.6193621,19.6570587 51.7245751,22.9390586 C51.8297882,26.2210585 49.1758401,32.6397399 48.1500605,35.8126019 C46.6970191,38.9302844 46.627003,40.2648392 44.8051544,43.4952114 C43.0136216,47.5994166 40.8309123,51.7552972 38.2570265,55.9628531 L36.8007078,51.0150006 C33.3098831,48.2265165 30.7231286,48.2265165 29.0404443,51.0150006 C26.516418,55.1977267 26.4337117,61.3302563 35.51936,62.8612367 C32.377181,63.6244894 30.2175424,65.3536684 29.0404443,68.0487737 Z"></path>
                </g>
                <path transform="translate(181.346181, 193.514536) scale(-1, 1) translate(-181.346181, -193.514536)" fill-rule="nonzero" fill="url(#linearGradient-12)" id="路径-52" d="M186.679657,185.808714 L185.508002,193.465723 C180.736385,193.614948 175.54732,195.017546 169.940806,197.673518 C166.333034,199.988214 166.172462,201.037006 166.056318,203.030062 C165.978888,204.358766 176.172276,204.358766 196.636481,203.030062 L196.636481,183.002482 L186.679657,185.808714 Z"></path>
                <path fill-rule="nonzero" fill="url(#linearGradient-13)" id="Fill-1706" d="M94.4300099,156.66187 C103.296195,143.608822 125.253,113.370212 150.391968,115.909399 C173.390799,118.232538 180.701212,189.682296 180.701212,189.682296 L161.957958,189.901743 L143.83465,146.737803 L104.28175,196.560655 L75.4661725,185.477447 L94.4300099,156.66187 Z"></path>
                <path fill-rule="nonzero" fill="url(#linearGradient-14)" id="Fill-1708" d="M27.1088956,155.870376 C21.4757895,175.587836 20.2119149,206.359909 39.8925197,210.689744 C50.726638,213.07325 64.8109918,211.556474 101.212358,211.773155 C137.183538,211.987297 160.582056,213.723297 160.365373,194.005838 C160.148692,174.287741 116.596807,179.271436 107.279465,178.404706 C97.9627586,177.537977 54.843603,177.104613 54.843603,177.104613 L27.1088956,155.870376 Z"></path>
                <path fill="url(#linearGradient-15)" id="Fill-1709" d="M105.113903,98.3352222 C105.113903,98.3352222 102.725578,96.0077961 97.4906732,91.2903836 C87.5290153,83.989168 91.3619045,78.0032242 91.3619045,78.0032242 C91.3619045,78.0032242 66.8801916,75.6861167 46.9300265,110.751515 C34.9142192,131.871094 21.240637,165.095565 21.240637,165.095565 C21.240637,165.095565 35.1980104,182.015867 85.4676841,177.465538 C85.4676841,177.465538 100.56301,148.719858 108.36294,134.852821 C113.562893,125.607708 112.479881,113.435174 105.113903,98.3352222 Z"></path>
                <polygon points="170.74169 136.559322 196.225525 136.559322 196.225525 139.107706 170.74169 139.107706" transform="translate(183.483607, 137.833514) scale(-1, 1) rotate(20.000000) translate(-183.483607, -137.833514)" fill="#483029" id="矩形"></polygon>
                <path transform="translate(177.521728, 142.893858) rotate(-19.000000) translate(-177.521728, -142.893858)" fill="#FEE0BC" id="路径-50备份" d="M167.32786,139.895009 C169.202308,139.622852 171.167047,139.364551 173.222076,139.120105 C173.898573,138.747511 174.782332,138.468272 175.873352,138.282387 C177.906598,138.358653 178.765587,138.758493 178.45032,139.481906 C178.135052,140.20532 177.538209,140.667872 176.659791,140.869564 L179.979701,141.275593 L183.407256,140.825483 C187.019601,140.434954 188.360357,141.511014 187.429524,144.053662 C185.815718,146.710405 181.659649,148.822834 175.664949,146.521116 C174.390216,145.551309 172.39198,144.986226 169.670242,144.825866 L167.32786,139.895009 Z"></path>
                <path fill="url(#linearGradient-16)" id="路径-3" d="M169.842718,141.198121 L115.929651,161.556621 L101.653871,105.083309 C97.38093,95.2271988 89.8777252,91.0840825 79.1442567,92.6539602 C71.5212159,96.1479873 68.0223912,103.415212 68.6041391,111.297983 C69.185887,119.180755 80.467933,152.268818 91.927913,166.990141 C100.603741,176.975983 105.836163,183.884081 118.321549,180.689302 C124.770311,178.483911 143.434472,169.181577 174.31403,152.7823 L169.842718,141.198121 Z"></path>
            </g>
            <g transform="translate(16.361607, 0.000000)" id="404">
                <g transform="translate(343.900952, 413.599730) rotate(-20.000000) translate(-343.900952, -413.599730) translate(106.706166, 59.787933)" id="编组">
                    <polygon points="237.394289 7.30536585 246.879653 7.30536585 251.622335 68.1800725 232.651606 68.1800725" fill="url(#linearGradient-17)" id="路径"></polygon>
                    <rect rx="66" height="142.040982" width="132.795098" y="47.8885036" x="175.739421" fill="url(#linearGradient-18)" id="矩形"></rect>
                    <ellipse ry="60.8747067" rx="142.280463" cy="142.48155" cx="244.635553" fill="url(#linearGradient-19)" id="椭圆形"></ellipse>
                    <ellipse ry="60.8747067" rx="142.280463" cy="149.346348" cx="242.136971" fill="url(#linearGradient-20)" id="椭圆形备份"></ellipse>
                    <ellipse ry="30.4373533" rx="85.3682776" cy="154.41924" cx="242.136971" fill="url(#linearGradient-21)" id="椭圆形"></ellipse>
                    <polygon points="156.768693 149.346348 327.505248 149.346348 474.389574 707.623594 -4.89150568e-14 631.962559" opacity="0.5" fill="url(#linearGradient-22)" id="路径"></polygon>
                    <ellipse ry="7.30536585" rx="6.82983716" cy="7.30536585" cx="242.136971" fill="url(#linearGradient-23)" id="椭圆形"></ellipse>
                </g>
                <path transform="translate(295.143759, 311.970367) rotate(15.000000) translate(-295.143759, -311.970367)" fill="url(#linearGradient-24)" id="4" d="M319.068245,365.738799 L319.068245,338.819348 L328.017905,338.819348 L328.017905,324.936804 L319.068245,324.936804 L319.068245,258.201934 L304.340063,258.201934 L304.340063,324.936804 L283.762891,324.936804 C282.118597,324.936804 280.779671,324.537475 279.746114,323.738818 C278.383699,322.611302 277.702491,321.295866 277.702491,319.792511 C277.702491,319.275733 277.819941,318.171706 278.05484,316.480432 L278.05484,316.480432 L286.934031,258.201934 L272.346789,258.201934 L262.481022,321.483785 C262.340082,322.423382 262.269612,323.362979 262.269612,324.302576 C262.269612,327.403246 262.88035,329.916667 264.101826,331.842841 C267.061556,336.493846 271.031353,338.819348 276.011217,338.819348 L276.011217,338.819348 L304.340063,338.819348 L304.340063,365.738799 L319.068245,365.738799 Z"></path>
                <path transform="translate(334.537623, 506.347163) rotate(-15.000000) translate(-334.537623, -506.347163)" fill="url(#linearGradient-25)" id="4" d="M355.730496,553.976508 L355.730496,530.130623 L363.658317,530.130623 L363.658317,517.833139 L355.730496,517.833139 L355.730496,458.717819 L342.683926,458.717819 L342.683926,517.833139 L324.456182,517.833139 C322.999628,517.833139 321.813576,517.479404 320.898027,516.771934 C319.691167,515.773154 319.087737,514.60791 319.087737,513.276203 C319.087737,512.818428 319.191777,511.840456 319.399856,510.342285 L319.399856,510.342285 L327.265253,458.717819 L314.34353,458.717819 L305.604201,514.774373 C305.479353,515.606691 305.416929,516.439008 305.416929,517.271325 C305.416929,520.017971 305.957935,522.244419 307.039948,523.950669 C309.661746,528.070639 313.178286,530.130623 317.589567,530.130623 L317.589567,530.130623 L342.683926,530.130623 L342.683926,553.976508 L355.730496,553.976508 Z"></path>
                <path transform="translate(378.315420, 386.634404) rotate(15.000000) translate(-378.315420, -386.634404)" fill="url(#linearGradient-26)" id="0" d="M390.381045,427.593322 C391.843545,427.593322 393.502234,427.165273 395.357112,426.309175 C396.926624,425.595761 398.228606,424.721828 399.263057,423.687377 C401.724338,421.226096 402.954978,417.587681 402.954978,412.772133 L402.954978,412.772133 L402.954978,360.389663 C402.954978,356.465883 401.742173,353.005822 399.316563,350.00948 C396.962295,347.120151 393.28821,345.675486 388.294307,345.675486 L388.294307,345.675486 L367.105893,345.675486 C363.467478,345.675486 360.328454,347.048809 357.68882,349.795456 C355.013515,352.613444 353.675862,356.305364 353.675862,360.871218 L353.675862,360.871218 L353.675862,413.039663 C353.675862,417.462834 354.977844,420.94073 357.581807,423.473352 C360.435466,426.219998 364.020374,427.593322 368.336533,427.593322 L368.336533,427.593322 L390.381045,427.593322 Z M386.100557,417.05262 L370.262753,417.05262 C366.660009,417.05262 364.858637,415.162072 364.858637,411.380974 L364.858637,411.380974 L364.858637,360.443169 C364.858637,359.230364 365.304521,358.195913 366.196289,357.339816 C367.016716,356.59073 368.176015,356.216187 369.674185,356.216187 L369.674185,356.216187 L387.117173,356.216187 C390.220527,356.216187 391.772204,357.928383 391.772204,361.352773 L391.772204,361.352773 L391.772204,411.380974 C391.772204,413.449877 391.415496,414.894541 390.702082,415.714968 C389.881655,416.606736 388.347813,417.05262 386.100557,417.05262 L386.100557,417.05262 Z"></path>
            </g>
            <path fill="url(#linearGradient-27)" id="大雁" d="M599.790512,417.130352 L599.790512,416.978963 C590.825834,391.710584 561.654615,379.85091 536.886122,383.492346 C555.242609,372.076024 585.553684,369.032032 599.785458,386.536339 L599.785458,386.687727 C614.014704,369.33481 644.469841,372.227413 662.684793,383.643735 C637.9163,380.142874 608.750136,392.024175 599.785458,417.130352 L599.790512,417.130352 Z M640.579348,340.462111 L640.579348,340.365984 C635.311111,325.48948 618.127361,318.488773 603.549839,320.649976 C614.359022,313.927706 632.202851,312.137753 640.582447,322.443245 L640.582447,322.532742 C648.949647,312.316748 666.889543,314.020519 677.615054,320.739474 C663.049928,318.677713 645.86308,325.668476 640.582447,340.455481 L640.579348,340.462111 Z M741.376538,328.055775 L741.376538,327.992795 C737.716663,317.680673 725.813546,312.837854 715.707828,314.326168 C723.198021,309.668974 735.569081,308.42595 741.376538,315.569191 L741.376538,315.632171 C747.183995,308.55191 759.610836,309.731954 767.045248,314.389148 C756.93953,312.960499 745.042611,317.806633 741.376538,328.055775 L741.376538,328.055775 Z M688.694167,275.684369 L688.694167,275.621389 C685.034292,265.309268 673.131175,260.466449 663.025457,261.954762 C670.51565,257.297568 682.886711,256.054545 688.694167,263.197785 L688.694167,263.260765 C694.501624,256.180504 706.928465,257.360548 714.362878,262.017742 C704.257159,260.589094 692.36024,265.435227 688.694167,275.684369 L688.694167,275.684369 Z M829.569926,333.951983 L829.569926,333.908892 C827.034974,326.762336 818.779336,323.401201 811.77568,324.435397 C816.969542,321.206851 825.544373,320.345021 829.569926,325.297226 L829.569926,325.340318 C833.598577,320.431204 842.210596,321.249942 847.364171,324.478488 C840.360515,323.484069 832.104877,326.848519 829.569926,333.951983 Z"></path>
        </g>
    </g>
</svg>